<svg xmlns="http://www.w3.org/2000/svg" width="1200" height="700" viewBox="0 0 1200 700">
  <rect width="1200" height="700" fill="#111113"/>
  <g fill="#161618" stroke="#3f3f46">
    <rect x="100" y="115" width="280" height="120" rx="12"/><rect x="100" y="465" width="280" height="120" rx="12"/>
    <rect x="470" y="290" width="260" height="120" rx="12"/><rect x="820" y="290" width="280" height="120" rx="12"/>
  </g>
  <g fill="#fafafa" font-family="Inter,Arial" font-size="23" text-anchor="middle">
    <text x="240" y="168">Collaborative score</text><text x="240" y="518">Content score</text><text x="600" y="343">Normalize</text><text x="960" y="343">Final ranking</text>
  </g>
  <g fill="#71717a" font-family="Inter,Arial" font-size="16" text-anchor="middle">
    <text x="240" y="200">behaviour similarity</text><text x="240" y="550">metadata similarity</text><text x="600" y="375">shared scale</text><text x="960" y="375">confidence weighted</text>
  </g>
  <g stroke="#5ee0b7" stroke-width="3" fill="none">
    <path d="M380 175c95 0 45 175 90 175"/><path d="M380 525c95 0 45-175 90-175"/><path d="M730 350h75"/><path d="m792 340 13 10-13 10"/>
  </g>
</svg>
